# xmcd
#
# Track frame offsets: 
#        150
#        11892
#        25555
#        38352
#        48900
#        68527
#        85450
#        100390
#        120597
#        135330
#        150742
#        166040
#        183180
#        201060
#        220250
#
# Disc length: 3039 seconds
#
# Revision: 0
# Processed by: cddbd v1.4PL0 Copyright (c) Steve Scherf et al.
# Submitted via: ExactAudioCopy v0.90b4
#
DISCID=b30bdd0f
DTITLE=The Saddle City Band - The Tucson Album
DYEAR=1989
DGENRE=Folk
TTITLE0=Cool Water
TTITLE1=The Lights of Tucson
TTITLE2=When the Cactus is in Bloom
TTITLE3=Windy and Warm
TTITLE4=Fire on the Mountain
TTITLE5=Cool Cool Water
TTITLE6=Single Saddle
TTITLE7=Western Movies
TTITLE8=Sombra Caliente
TTITLE9=Empty Saddles
TTITLE10=I'm Truckin' on into Tucson
TTITLE11=Cold Cold Town
TTITLE12=Arizona's Favorite Child
TTITLE13=Rider in the Rain
TTITLE14=Happy Trails
EXTD=
EXTT0=
EXTT1=
EXTT2=
EXTT3=
EXTT4=
EXTT5=
EXTT6=
EXTT7=
EXTT8=
EXTT9=
EXTT10=
EXTT11=
EXTT12=
EXTT13=
EXTT14=
PLAYORDER=
